<?xml version="1.0" encoding="utf-8"?>
<!-- Generator: Adobe Illustrator 23.1.1, SVG Export Plug-In . SVG Version: 6.00 Build 0)  -->
<svg version="1.1" id="Livello_1" xmlns="http://www.w3.org/2000/svg" xmlns:xlink="http://www.w3.org/1999/xlink" x="0px" y="0px"
	 viewBox="0 0 196.8 65" style="enable-background:new 0 0 196.8 65;" xml:space="preserve">
<style type="text/css">
	.st0{fill:#00305C;}
	.st1{fill:#8C2633;}
	.st2{fill:none;}
</style>
<title>logo-omer</title>
<path class="st0" d="M23.7,0L0,65h173.1l23.7-65H23.7z M169.9,60.4H6.6L26.9,4.6h163.3L169.9,60.4z"/>
<polygon class="st1" points="68.2,12.9 53.8,52.4 62.5,52.4 73.9,21 80.7,21 69.2,52.4 77.9,52.4 89.3,21 96.1,21 84.7,52.4 
	93.3,52.4 107.7,12.9 "/>
<path class="st1" d="M32.7,12.9L18.3,52.4h28.1l14.4-39.5H32.7z M40.7,44.2H29.9L38.4,21h10.8L40.7,44.2z"/>
<polygon class="st1" points="134.5,36.7 137.5,28.6 118,28.6 120.8,21 140.2,21 143.2,12.9 115.1,12.9 100.7,52.4 128.8,52.4 
	131.8,44.2 112.3,44.2 115.1,36.7 "/>
<path class="st1" d="M150.6,12.9l-14.4,39.5h8.6l5.7-15.7h2.7l2.8,15.7h8.2l-2.8-15.7h8.5l8.7-23.8H150.6z M164.3,28.6h-10.8
	l2.7-7.5h10.8L164.3,28.6z"/>
<g>
	<g>
		<path class="st2" d="M184.8,54.1c-2.5,0-4.5,2-4.5,4.5s2,4.5,4.5,4.5c2.4,0,4.3-1.9,4.3-4.3c0-0.1,0-0.1,0-0.2
			C189.2,56.2,187.3,54.2,184.8,54.1C184.9,54.1,184.9,54.1,184.8,54.1z M186.2,61.6c-0.2-0.4-0.4-0.9-0.5-1.4
			c0-0.6-0.4-0.9-1.2-0.9h-0.6v2.3h-1.3v-5.7c0.7-0.1,1.4-0.2,2.2-0.2c0.7-0.1,1.4,0.1,1.9,0.4c0.4,0.3,0.6,0.8,0.6,1.2
			c-0.1,0.6-0.5,1.2-1.2,1.3l0,0c0.6,0.2,1,0.8,1.1,1.4c0,0.5,0.2,1,0.4,1.4L186.2,61.6z"/>
	</g>
	<g>
		<path class="st2" d="M184.7,56.7c-0.2,0-0.5,0-0.7,0v1.6h0.6c0.7,0,1.3-0.2,1.3-0.8S185.5,56.7,184.7,56.7z"/>
	</g>
	<g>
		<path class="st0" d="M186.1,58.8L186.1,58.8c0.6-0.1,1.1-0.7,1.2-1.3c0-0.5-0.2-0.9-0.6-1.2c-0.6-0.3-1.3-0.5-1.9-0.4
			c-0.7,0-1.5,0-2.2,0.2v5.7h1.3v-2.3h0.6c0.7,0,1.1,0.3,1.2,0.9c0.1,0.5,0.2,0.9,0.5,1.4h1.4c-0.2-0.4-0.4-0.9-0.4-1.4
			C187.2,59.6,186.7,59,186.1,58.8z M184.6,58.4H184v-1.6c0.2,0,0.5,0,0.7,0c0.8,0,1.2,0.3,1.2,0.9S185.3,58.4,184.6,58.4
			L184.6,58.4z"/>
	</g>
	<g>
		<path class="st0" d="M184.9,65c-1.6,0-3.2-0.6-4.4-1.8c-1.2-1.2-1.9-2.8-1.9-4.4c-0.1-3.5,2.7-6.4,6.2-6.4h0c0,0,0.1,0,0.1,0
			c1.7,0,3.2,0.6,4.4,1.8c1.2,1.2,1.9,2.8,1.9,4.5c0,3.5-2.8,6.3-6.2,6.4C185,65,185,65,184.9,65z M184.8,53.6c-2.8,0.1-5,2.4-5,5.1
			c0,1.3,0.6,2.6,1.5,3.5c0.9,0.9,2.2,1.4,3.5,1.4c0,0,0.1,0,0.1,0c2.8,0,5-2.3,5-5.1c0-1.4-0.6-2.6-1.5-3.6
			C187.5,54.1,186.2,53.6,184.8,53.6L184.8,53.6z"/>
	</g>
</g>
</svg>
