<?xml version="1.0" encoding="UTF-8"?><svg id="a" xmlns="http://www.w3.org/2000/svg" width="791.95" height="310.41" viewBox="0 0 791.95 310.41"><path d="M393.26,86.67c3.17-12.25,4.77-23.23,4.77-32.9,0-35.76-22.72-53.65-68.11-53.65H151.77c-57.63,0-94.19,28.85-109.61,86.54L5.42,223.4c-3.18,12.25-4.78,23.22-4.78,32.9,0,35.75,22.7,53.64,68.11,53.64H246.92c57.64,0,94.17-28.84,109.59-86.53l36.75-136.73Zm-162.81,113.61c-7.62,28.85-25.85,43.3-54.68,43.3-22.77,0-34.17-8.95-34.17-26.85,0-4.9,.81-10.4,2.39-16.45l24.22-90.48c7.79-28.85,26.07-43.3,54.91-43.3,22.63,0,33.93,8.96,33.93,26.85,0,4.9-.78,10.39-2.37,16.45l-24.22,90.48m346.21-82.83L417.63,42.73l59.36,125.31-161.9,141.69,123.38,.21,74.86-65.62,30.67,65.62h164.69l-78.91-167.52L791.73,.13l-123.21,.22-75.05,65.52L562.33,.13h-164.52l178.87,117.32m156.72,164.98c-7.81,0-14.19,6.37-14.19,14.19,0,7.96,6.37,14.26,14.19,14.26,7.89,0,14.13-6.29,14.13-14.26,0-7.82-6.25-14.19-14.07-14.19h-.06Zm0,2.84c5.98,0,10.84,5.12,10.84,11.42,0,6.37-4.86,11.42-10.84,11.35-5.98,0-10.79-4.99-10.79-11.35,0-6.3,4.81-11.42,10.74-11.42h.05Zm-2.45,13.12h1.51c1.69,0,2.69,.69,2.97,2.4,.3,2.15,.56,3.54,.94,4.1h3.46c-.25-.51-.55-1.45-.86-3.9-.27-2.35-1.16-3.61-2.53-3.86v-.12c1.69-.44,3.03-1.77,3.03-3.65,0-1.65-.5-2.73-1.39-3.42-1.06-.81-2.72-1.25-5.43-1.25-2.41,0-3.77,.26-5.04,.44v15.77h3.35v-6.5Zm0-7.13c.42-.06,1-.06,1.82-.06,2.27,0,3.22,1.01,3.22,2.33,0,1.64-1.53,2.27-3.47,2.27h-1.57v-4.54Z"/></svg>