<?xml version="1.0" encoding="utf-8"?>
<!-- Generator: Adobe Illustrator 21.1.0, SVG Export Plug-In . SVG Version: 6.00 Build 0)  -->
<svg version="1.1" id="Layer_1" xmlns:sketch="http://www.bohemiancoding.com/sketch/ns"
	 xmlns="http://www.w3.org/2000/svg" xmlns:xlink="http://www.w3.org/1999/xlink" x="0px" y="0px" viewBox="0 0 306 108.7"
	 style="enable-background:new 0 0 306 108.7;" xml:space="preserve">
<style type="text/css">
	.st0{fill:#E11D06;}
	.st1{fill:#FFFFFF;}
</style>
<title>Richelieu-Logo-Red-R_White-richelieu</title>
<desc>Created with Sketch.</desc>
<g id="Page-1" sketch:type="MSShapeGroup">
	<g id="richelieu-logo-red-white">
		<path id="Fill-1" class="st0" d="M69.2,108.7c0,0-34.3-32-42.8-40h6c15.6,0,22.9-7.3,22.9-22.9V22.9C55.2,7.3,48,0,32.4,0H0v19.5
			h26.2c5.2,0,7.1,0.6,7.1,7.5v14.9c0,6.9-1.7,7.5-7.1,7.5H0v20.6l39.7,38.8H69.2"/>
		<g id="Rich-UNI-Horiz-White-RGB" transform="translate(83.000000, 23.000000)">
			<path id="Fill-4" class="st1" d="M-20.8,43.7h11.1V26.9h0.1l9.6,16.8h13.3L1,25.1c5.8,0,11.2-4.3,11.2-12.6
				C12.2,2.3,5,1.2-2.1,1.2h-18.7V43.7L-20.8,43.7L-20.8,43.7z M-9.7,10.1H-4c3,0,5.1,0.6,5.1,4.1c0,2.4-1.6,4.3-4.2,4.3h-6.5V10.1
				L-9.7,10.1L-9.7,10.1z"/>
			<path id="Fill-5" class="st1" d="M27.3,2.3c0,3.4-2.9,4.2-6.8,4.2c-3.8,0-6.8-0.7-6.8-4.2c0-3.2,2.6-4.2,6.8-4.2
				S27.3-0.9,27.3,2.3L27.3,2.3L27.3,2.3z M14.8,8c1.8,0.6,3.7,1,5.7,1c2.1,0,3.9-0.4,5.7-1v35.7H14.8V8L14.8,8L14.8,8z"/>
			<path id="Fill-6" class="st1" d="M57,22.2c-2.9-3.3-5.8-4.1-8.6-4.1c-5.4,0-8,2.9-8,8.5c0,4.1,2.1,8,7.7,8c4,0,6.6-1.9,8.9-5.1
				v10.1c-2.7,3.6-7,5-11.5,5c-11.5,0-16.2-8.9-16.2-18.9C29.3,14.5,34.6,7,46.4,7C50.1,7,54,8,57,11.1V22.2"/>
			<path id="Fill-7" class="st1" d="M59.4-0.6h11.5v15.1h0.1C72.4,9.6,76.3,7,81.4,7c5.7,0,9.8,3.3,9.8,9.8v26.9H79.7V23
				c0-3.1-0.6-5.3-4-5.3c-4.1,0-4.9,3.4-4.9,7.4v18.5H59.4V-0.6"/>
			<path id="Fill-8" class="st1" d="M122.7,31.3c-2.3,3.3-6.1,5-10.3,5c-4.7,0-8.2-2.3-9-6.7h20.9c0.3-2.1,0.4-4.2,0.4-6.2
				c0-9.8-4.5-16.4-14.4-16.4c-12.7,0-17.2,7.6-17.2,19.1c0,11.7,5.1,18.6,17.3,18.6c4.6,0,9.7-1.9,12.2-5V31.3L122.7,31.3
				L122.7,31.3z M103.6,21.6c0.3-3.1,3.2-5.3,6.5-5.3c3.6,0,6.6,1.7,6.9,5.3H103.6L103.6,21.6L103.6,21.6z"/>
			<path id="Fill-9" class="st1" d="M127.4-0.6h11.5v44.3h-11.5V-0.6L127.4-0.6z"/>
			<path id="Fill-10" class="st1" d="M156,2.3c0,3.4-2.9,4.2-6.8,4.2c-3.8,0-6.8-0.7-6.8-4.2c0-3.2,2.6-4.2,6.8-4.2
				C153.4-1.8,156-0.9,156,2.3L156,2.3L156,2.3z M143.5,8c1.8,0.6,3.7,1,5.7,1c2.1,0,4-0.4,5.7-1v35.7h-11.5V8L143.5,8L143.5,8z"/>
			<path id="Fill-11" class="st1" d="M187.2,31.3c-2.3,3.3-6.1,5-10.3,5c-4.7,0-8.2-2.3-9-6.7h20.9c0.3-2.1,0.4-4.2,0.4-6.2
				c0-9.8-4.5-16.4-14.4-16.4c-12.7,0-17.2,7.6-17.2,19.1c0,11.7,5.1,18.6,17.3,18.6c4.6,0,9.7-1.9,12.2-5V31.3L187.2,31.3
				L187.2,31.3z M168,21.6c0.3-3.1,3.2-5.3,6.5-5.3c3.6,0,6.6,1.7,6.9,5.3H168L168,21.6L168,21.6z"/>
			<path id="Fill-12" class="st1" d="M212.2,36h-0.1c-2.2,6.2-6.1,8.8-11.1,8.8c-5.7,0-9.8-3.1-9.8-11.1V8h11.5v20.7
				c0,3.1,0.8,5.3,4,5.3c3.5,0,4.9-3.4,4.9-7.4V8H223v35.7h-10.8V36"/>
		</g>
	</g>
</g>
</svg>