<?xml version="1.0" encoding="UTF-8" standalone="no"?>
<svg
   xmlns:dc="http://purl.org/dc/elements/1.1/"
   xmlns:cc="http://creativecommons.org/ns#"
   xmlns:rdf="http://www.w3.org/1999/02/22-rdf-syntax-ns#"
   xmlns:svg="http://www.w3.org/2000/svg"
   xmlns="http://www.w3.org/2000/svg"
   xmlns:sodipodi="http://sodipodi.sourceforge.net/DTD/sodipodi-0.dtd"
   xmlns:inkscape="http://www.inkscape.org/namespaces/inkscape"
   id="Layer_1"
   data-name="Layer 1"
   viewBox="0 0 194.43668 72.171131"
   version="1.1"
   sodipodi:docname="Sharpie-Logo-Black.svg"
   width="194.43668"
   height="72.171135"
   inkscape:version="1.0.1 (c497b03c, 2020-09-10)">
  <metadata
     id="metadata46">
    <rdf:RDF>
      <cc:Work
         rdf:about="">
        <dc:format>image/svg+xml</dc:format>
        <dc:type
           rdf:resource="http://purl.org/dc/dcmitype/StillImage" />
        <dc:title></dc:title>
      </cc:Work>
    </rdf:RDF>
  </metadata>
  <sodipodi:namedview
     pagecolor="#ffffff"
     bordercolor="#666666"
     borderopacity="1"
     objecttolerance="10"
     gridtolerance="10"
     guidetolerance="10"
     inkscape:pageopacity="0"
     inkscape:pageshadow="2"
     inkscape:window-width="1440"
     inkscape:window-height="847"
     id="namedview44"
     showgrid="false"
     fit-margin-top="0"
     fit-margin-left="0"
     fit-margin-right="0"
     fit-margin-bottom="0"
     inkscape:zoom="5.6372802"
     inkscape:cx="97.212581"
     inkscape:cy="36.081306"
     inkscape:window-x="0"
     inkscape:window-y="25"
     inkscape:window-maximized="0"
     inkscape:current-layer="Layer_1" />
  <defs
     id="defs31">
    <style
       id="style29">.cls-1{fill:#231f20;}</style>
  </defs>
  <path
     class="cls-1"
     d="m 194.38258,38.541304 a 2.57,2.57 0 1 1 -5.07,0.81 v 0 a 2.57,2.57 0 1 1 5.07,-0.81 m -4.66,0.73 a 2.16,2.16 0 1 0 1.81,-2.47 v 0 a 2.14,2.14 0 0 0 -1.8,2.45 v 0 m 3.62,0.9 -0.44,0.08 -1,-1.12 -0.54,0.09 0.22,1.24 -0.4,0.07 -0.44,-2.83 1.22,-0.22 c 0.52,-0.09 1,0 1.12,0.6 0.12,0.6 -0.25,0.85 -0.75,1 l 1,1.15 m -2.05,-1.31 0.73,-0.13 c 0.57,-0.1 0.67,-0.34 0.63,-0.61 -0.04,-0.27 -0.45,-0.34 -0.75,-0.3 l -0.75,0.14 z"
     id="path33" />
  <path
     class="cls-1"
     d="m 36.392582,11.621304 c 5.52,-1.31 15.28,-1.57 17.35,3.16 3,6.92 -8.1,14.16 -11.29,16 -2.9,1.19 -6,-0.72 -4.26,-3.8 8.51,-4.92 12,-9.38 9.56,-10.66 -8.06,-4.29 -30.97,7.55 -31.16,12.62 -0.08,2.79 2.2,4.44 13.44,6.27 12.21,2.53 24.89,5.81 21.44,16.83 -6.29,15.5 -29.13,19.09 -39.58,20.1 -5.1700002,0.22 -9.8500002,-0.81 -10.7800002,-2 -1.19999997,-1 -1.65999997,-3.62 -0.19999997,-4.31 a 5,5 0 0 1 3.21999997,-0.43 c 25.3400002,3.24 40.2900002,-8 41.0500002,-15.36 1,-9 -29.67,-6.51 -33.62,-16 -4.9700002,-12.1 16.84,-20.54 24.83,-22.42 z"
     id="path35" />
  <path
     class="cls-1"
     d="m 61.912582,9.4413044 c 2.75,1.7999996 0.52,20.2099996 0.52,20.2099996 5.92,-2.9 9.72,-4.76 12.17,-0.6 3.33,5.62 -3.67,19.12 -0.81,22.94 1.14,1.54 6,-5.33 6.17,-7.64 0,-0.87 0.12,-3.22 0.19,-4.16 0.31,-4 0.72,-8.46 3.26,-12.38 4,-6.56 11.11,-8 13.94,-0.67 5.749998,0.38 -2.22,17.65 1.87,19.41 3.139998,1.37 4.629998,-3.28 5.659998,-7.09 0.44,-1.66 2.3,-12.59 1.4,-12.27 -2.63,0.47 -5.17,-0.55 -4.62,-3.17 0.24,-1 3.34,-1.51 4.69,-2.19 0.55,-4.46 1.21,-6.19 4.2,-6.84 1.67,-0.39 1.26,3.16 1.28,5.27 5.13,-2.08 9.07,-2.47 10.34,1.56 2.28,7.13 -5.55,18.91 -1.85,21.78 1.24,0.8 6.86,-3.06 7.61,-14.43 0.69,-10 1.39,-22.3299996 5.53,-16.65 1.46,2 -0.24,4.7 0.17,6.73 0.13,0 7.06,-9.2599996 11.79,-3.74 0.83,1.23 4.75,4.68 3,17.94 -0.7,4.42 -1.65,7.56 -3.2,9.7 a 8.39,8.39 0 0 1 -6,3.31 c -4,0 -7.17,-5.65 -3.06,-11.27 2.11,-1.5 1.37,1.61 1.38,3.15 a 4,4 0 0 0 0.25,1.46 c 4.23,8.71 10,-18.91 3.63,-19.73 -3.39,0 -5.07,3.18 -6.44,6.29 -5.6,12.76 0,32 -2.45,33.16 -4.13,1.94 -4.87,-1.31 -5.08,-15.35 -1.48,1.65 -7.07,9.25 -11.72,3.15 -4.66,-5.44 4.66,-22.51 0.6,-23 -1.27,-0.16 -4.31,1.1 -4.4,1.47 -0.78,3 -1.1,12.24 -3.81,20 -2.81,8.08 -8.619998,10.2 -12.929998,3.91 -3.13,5.28 -7.74,8 -11.5,4.93 a 8,8 0 0 1 -1.92,-3.29 c -1.69,2 -3.53,4.77 -6.3,6.19 a 6.16,6.16 0 0 1 -4.34,0.76 6.19,6.19 0 0 1 -1.55,-1 c -4.69,-3.59 -0.11,-12.17 0.13,-22.93 a 1.34,1.34 0 0 0 -0.84,-1.42 c -0.94,-0.51 -6.36,1.66 -6.88,3.52 -2.4,20.41 -0.87,23.17 -1.55,23.84 -10.2,5.54 -2.94,-21.36 -4.3,-21.25 -2.95,1.45 -6.27,-0.53 -5,-4.39 0.27,-1.12 5.23,-0.62 5.53,-2.58 1.68,-10.87 -0.1,-19.73 1.51,-21.76 0.91,-0.5999996 2.66,-2.2199996 3.74,-0.8599996 m 25.83,39.4799996 c 4.07,1.45 5.07,-10.52 5.8,-19.3 a 1.78,1.78 0 0 1 0.78,-1.7 5.3,5.3 0 0 0 -3.3,-0.26 c -5.5,2.35 -7.44,17.26 -3.28,21.26 z"
     id="path37" />
  <path
     class="cls-1"
     d="m 156.85258,4.2513044 c 0.6,-2.63 2.6,-4.51999996 4.45,-4.21999996 1.85,0.3 2.85,2.69999996 2.29,5.34999996 -0.56,2.65 -2.66,4.56 -4.51,4.21 -1.85,-0.35 -2.87,-2.72 -2.23,-5.34 z"
     id="path39" />
  <path
     class="cls-1"
     d="m 170.40258,8.9413044 c 5.57,-2.52 10.08,4.1799996 8.1,14.1899996 a 29,29 0 0 1 -7.35,13.38 c 4,4.36 10.14,1.43 11.77,-1.32 1.87,-3.15 2.29,-8 2.88,-8.35 a 3,3 0 0 1 1.79,-0.2 c 1.23,0.4 1.71,2.35 1.5,4.7 a 14.68,14.68 0 0 1 -4,8.61 12.51,12.51 0 0 1 -4.6,2.7 13.16,13.16 0 0 1 -11,-1.11 16.64,16.64 0 0 1 -2.11,-1.6 c -0.32,0.06 -8.15,5.6 -13.19,1 -3.06,-3.18 -3.46,-6.4 -2.21,-14.71 1.36,-7.78 3.85,-13.94 6.76,-14.1 5.4,-0.29 -1.91,9.62 -1.93,19.94 -0.05,6.33 3.93,6.8 7.79,3.85 a 21.22,21.22 0 0 1 -2.33,-8.98 c -0.1,-6.33 1.83,-15.3 8.17,-17.9999996 m -1.74,23.3499996 c 6.37,-8 5.63,-16.39 4.38,-17.69 a 1.64,1.64 0 0 0 -2.11,0.44 c -2.38,2.37 -5.25,12.9 -2.31,17.2 z"
     id="path41" />
</svg>
