<svg xmlns="http://www.w3.org/2000/svg" fill="none" viewBox="0 0 100 30" height="30" width="100">
<path fill="black" d="M95.99 3.12081H96.6416C97.193 3.12081 97.6441 3.07047 97.6441 2.46644C97.6441 1.96309 97.193 1.86242 96.792 1.86242H95.99V3.12081ZM95.3885 1.35906H96.8923C97.7945 1.35906 98.2456 1.71141 98.2456 2.46644C98.2456 3.17114 97.7945 3.47315 97.2431 3.52349L98.3459 5.2349H97.6943L96.6416 3.57383H95.99V5.2349H95.3885V1.35906ZM96.6918 6.19128C98.2456 6.19128 99.3985 4.98322 99.3985 3.32215C99.3985 1.71141 98.1955 0.503356 96.6918 0.503356C95.1379 0.503356 93.9349 1.71141 93.9349 3.32215C93.9349 4.93289 95.1379 6.19128 96.6918 6.19128ZM96.6918 0C98.4963 0 100 1.4094 100 3.32215C100 5.2349 98.4963 6.64429 96.6918 6.64429C94.8873 6.64429 93.3334 5.2349 93.3334 3.32215C93.3334 1.4094 94.8873 0 96.6918 0Z"></path>
<path fill="black" d="M50.4762 12.4329L56.6917 30H47.619L41.8045 13.5906L37.3434 26.2752H28.2707L37.5439 0H46.6165L43.208 9.71477L52.5313 0H62.3559L50.4762 12.4329ZM80.2506 19.7819H95.6391L93.3333 26.2752H77.7945H69.0225L78.2957 0H87.218L80.2506 19.7819ZM75.0376 0L65.7644 26.2248H56.6917L65.9649 0H75.0376ZM29.2231 15.755L27.2682 21.2416C26.4662 23.6577 23.3584 26.2752 19.8496 26.2752H0L2.30576 19.7819H18.2456C18.797 19.7819 19.2481 19.4295 19.4486 18.9262L20.0501 17.2148C20.2005 16.8121 19.8997 16.4597 19.4987 16.4597H9.97494C8.42105 16.4597 7.01754 15.8054 6.16541 14.7483C5.21303 13.5403 5.01253 12.0805 5.51378 10.5705L7.46867 5.03356C8.27068 2.61745 11.3784 0 14.8872 0H34.7368L32.4311 6.49329H16.2907C15.8897 6.49329 15.5388 6.74497 15.3885 7.14765L14.6867 9.31208C14.5865 9.61409 14.787 9.86577 15.0877 9.86577H24.7619C26.3158 9.86577 27.7193 10.4698 28.5714 11.5772C29.5238 12.7852 29.7243 14.245 29.2231 15.755Z"></path>
</svg>
