<?xml version="1.0" encoding="utf-8"?>
<!-- Generator: Adobe Illustrator 21.0.0, SVG Export Plug-In . SVG Version: 6.00 Build 0)  -->
<svg version="1.1" id="Calque_4" xmlns="http://www.w3.org/2000/svg" xmlns:xlink="http://www.w3.org/1999/xlink" x="0px" y="0px"
	 width="419.3px" height="216px" viewBox="0 0 419.3 216" enable-background="new 0 0 419.3 216" xml:space="preserve">
<g>
	<path fill="#E11521" d="M16.1,164.9c0.7-0.2,1,0.1,1.1,0.5l2.4,5.5l0.2,0l5.4-7.3c0.4-0.5,0.6-0.7,1.3-0.9l5.4-1.2
		c0.8-0.2,1.1,0.4,1,1l-4.2,18.2c-0.2,0.8-0.6,1.1-1.4,1.3l-4.5,1c-0.7,0.2-1.1-0.3-1-1l2.2-9.4l-0.1,0l-5.2,6.6
		c-0.3,0.3-0.4,0.5-0.9,0.6c-0.4,0.1-0.6-0.1-0.7-0.4l-2.4-4.8l-0.1,0l-2.2,9.5c-0.2,0.8-0.6,1.1-1.4,1.3l-4.5,1
		c-0.7,0.2-1.1-0.3-1-1l4.2-18.1c0.2-0.8,0.6-1.2,1.4-1.3L16.1,164.9z"/>
	<path fill="#E11521" d="M55.5,161.8c0.3,1.3,0.2,3.1-0.3,5.3c-1.5,6.8-5.4,10.4-12,11.8c-4.7,1-8.1-0.4-8.9-3.8
		c-0.3-1.3-0.2-3.1,0.3-5.3c1.6-7,5.3-10.4,12-11.8C51.3,157,54.8,158.4,55.5,161.8 M48.3,168c0.3-1.5,0.5-2.6,0.3-3.3
		c-0.2-1.1-1.2-1.5-2.6-1.1c-2.4,0.5-3.5,1.8-4.3,5.5c-0.4,1.5-0.5,2.6-0.3,3.3c0.2,1.1,1.2,1.4,2.6,1.1
		C46.4,173,47.4,171.7,48.3,168"/>
	<path fill="#E11521" d="M72,153c4.5-1,6.6-0.8,7.2,2.1c0.2,1.1,0.1,2.1-0.3,3c-0.6,1.4-1.7,2.5-3.1,3.2l0,0.1c1,0,1.9,0.9,2.2,2
		c0.3,1.2,0.2,2.3-0.1,3.3c-1,3.5-5.2,5.5-9.6,6.5l-10,2.1c-0.7,0.2-1.1-0.3-1-1l4.2-18.2c0.2-0.8,0.6-1.1,1.4-1.3L72,153z
		 M65,169.4l3.2-0.7c0.9-0.2,1.9-0.6,2.3-1.3c0.2-0.4,0.4-0.8,0.3-1.4c-0.2-0.8-1-0.8-2.6-0.4l-2.4,0.5L65,169.4z M66.8,161.8
		l2.9-0.6c1.2-0.3,2.1-0.8,2.4-1.5c0.1-0.3,0.2-0.7,0.1-1.1c-0.2-0.8-1-0.8-2.2-0.5l-2.4,0.5L66.8,161.8z"/>
	<path fill="#E11521" d="M90.8,149.1c0.7-0.2,1.1,0.3,1,1l-4.2,18.2c-0.2,0.8-0.6,1.1-1.4,1.3l-4.5,1c-0.7,0.2-1.1-0.3-1-1l4.2-18.2
		c0.2-0.8,0.6-1.1,1.4-1.3L90.8,149.1z"/>
	<path fill="#E11521" d="M102.2,146.6c0.7-0.2,1.1,0.3,1,1l-3.1,13.5l7.5-1.6c0.7-0.1,1,0.3,0.9,0.9l-0.8,3.3
		c-0.2,0.8-0.5,1.2-1.5,1.4l-13.3,2.8c-0.7,0.1-0.9-0.1-0.8-0.9l4.2-18.3c0.2-0.8,0.6-1.1,1.4-1.3L102.2,146.6z"/>
	<path fill="#E11521" d="M129.6,140.8c0.7-0.1,1.1,0.2,0.9,0.9l-0.8,3.3c-0.1,0.6-0.5,0.8-1.1,1l-8.4,1.8l-0.6,2.4l7.5-1.6
		c0.7-0.1,1.1,0.2,0.9,0.9l-0.7,3c-0.1,0.6-0.5,0.8-1.1,1l-7.7,1.6l-0.6,2.6l8.3-1.8c0.7-0.1,1.1,0.2,0.9,0.9l-0.8,3.3
		c-0.1,0.6-0.5,0.8-1.1,1l-14.2,3c-0.7,0.2-1.1-0.3-1-1l4.2-18.2c0.2-0.8,0.6-1.1,1.4-1.3L129.6,140.8z"/>
	<path fill="#E11521" d="M150.4,137.4c0.6,0.2,0.8,0.6,0.5,1.2l-1.7,2.9c-0.4,0.7-1,0.9-1.8,0.8c-1-0.1-2.8,0-4.6,0.4
		c-1.5,0.3-2.4,0.7-2.6,1.5c0,0.1,0,0.3,0,0.4c0.1,0.7,1.3,0.7,3.4,0.7c3,0,4.8,0.5,5.3,2.8c0.1,0.7,0.2,1.5-0.1,2.7
		c-1.2,5.4-5,6.8-9.4,7.8c-3.9,0.8-6.9,0.6-8.6,0c-0.4-0.1-0.6-0.6-0.3-1.1l2-3.3c0.3-0.4,0.7-0.6,1.2-0.5c1.2,0.2,3,0.3,5.4-0.2
		c1.5-0.3,2.5-0.7,2.7-1.6c0-0.2,0-0.3,0-0.4c-0.1-0.7-1.4-0.6-3.8-0.6c-2.8,0.1-4.4-0.8-4.8-2.8c-0.1-0.7-0.2-1.6,0.1-2.8
		c1.1-4.7,4.1-6.5,9.4-7.7C146.3,136.9,149.3,137,150.4,137.4"/>
	<path fill="#E11521" d="M19.1,192.6c0.8-0.2,1.1,0.2,1.1,0.8l2.1,17.1c0.1,0.6-0.2,0.9-0.7,1l-5.1,1.1c-0.5,0.1-0.8-0.2-0.8-0.6
		l-0.2-2.3l-7.1,1.5l-1.5,2.9c-0.3,0.5-0.6,0.7-1.3,0.8l-4.9,1c-0.7,0.1-1-0.5-0.6-1.2l10.7-19.8c0.2-0.5,0.5-0.7,1.2-0.8
		L19.1,192.6z M15.2,204.5l-0.4-5.5l-0.6,0.1l-3.1,6.3L15.2,204.5z"/>
	<path fill="#E11521" d="M38.6,188.1c3.2-0.7,5.9-0.2,7,0.4c0.5,0.3,0.6,0.8,0.3,1.3l-1.9,2.8c-0.5,0.7-1.2,1.1-2.1,0.9
		c-0.7-0.2-1.8-0.2-3.7,0.1c-2.7,0.6-4.2,2-5,5.5c-0.3,1.3-0.4,2.2-0.2,2.9c0.3,1.4,1.7,1.8,3.6,1.4c1.9-0.4,2.7-1,3.6-1.5
		c0.4-0.2,1.4-0.7,1.6,0.1l0.8,2.5c0.2,0.7,0,1-0.7,1.6c-1.5,1.2-3.2,2.2-6.9,2.9c-4.8,1-8.4-0.4-9.1-3.7c-0.3-1.3-0.2-3.1,0.3-5.3
		C28,192.7,31.5,189.6,38.6,188.1"/>
	<path fill="#E11521" d="M60.1,183.5c3.2-0.7,5.9-0.2,7,0.4c0.5,0.3,0.6,0.8,0.3,1.3l-1.9,2.8c-0.5,0.7-1.2,1.1-2.1,0.9
		c-0.7-0.2-1.8-0.2-3.6,0.1c-2.7,0.6-4.2,2-5,5.5c-0.3,1.3-0.4,2.2-0.2,2.9c0.3,1.4,1.7,1.8,3.6,1.4c1.9-0.4,2.7-1,3.6-1.5
		c0.4-0.2,1.4-0.7,1.6,0.1l0.8,2.5c0.2,0.7,0,1-0.7,1.6c-1.5,1.2-3.2,2.2-6.9,2.9c-4.8,1-8.4-0.4-9.1-3.7c-0.3-1.3-0.2-3.1,0.3-5.3
		C49.4,188.1,52.9,185,60.1,183.5"/>
	<path fill="#E11521" d="M87.3,178.1c0.7-0.1,1.1,0.2,0.9,0.9l-0.8,3.3c-0.1,0.6-0.5,0.8-1.1,1l-8.4,1.8l-0.6,2.4l7.5-1.6
		c0.7-0.1,1.1,0.2,0.9,0.9l-0.7,3c-0.1,0.6-0.5,0.8-1.1,1l-7.7,1.6l-0.6,2.6l8.3-1.8c0.7-0.1,1.1,0.2,0.9,0.9l-0.8,3.3
		c-0.1,0.6-0.5,0.8-1.1,1l-14.2,3c-0.7,0.2-1.1-0.3-1-1l4.2-18.2c0.2-0.8,0.6-1.1,1.4-1.3L87.3,178.1z"/>
	<path fill="#E11521" d="M108.1,174.7c0.6,0.2,0.8,0.6,0.5,1.2l-1.7,2.9c-0.4,0.7-1,0.9-1.8,0.8c-1-0.1-2.8,0-4.6,0.4
		c-1.5,0.3-2.4,0.7-2.6,1.5c0,0.1,0,0.3,0,0.4c0.1,0.7,1.3,0.7,3.4,0.7c3,0,4.8,0.5,5.3,2.8c0.1,0.7,0.2,1.5-0.1,2.7
		c-1.2,5.4-5,6.8-9.4,7.8c-3.9,0.8-6.9,0.6-8.6,0c-0.4-0.1-0.6-0.6-0.3-1.1l2-3.3c0.3-0.4,0.7-0.6,1.2-0.5c1.2,0.2,3,0.3,5.4-0.2
		c1.5-0.3,2.5-0.7,2.7-1.6c0-0.2,0-0.3,0-0.4c-0.1-0.7-1.4-0.6-3.8-0.6c-2.8,0.1-4.4-0.8-4.8-2.8c-0.1-0.7-0.2-1.6,0.1-2.8
		c1.1-4.7,4.1-6.5,9.4-7.6C103.9,174.2,107,174.3,108.1,174.7"/>
	<path fill="#E11521" d="M128.9,170.3c0.6,0.2,0.8,0.6,0.4,1.2l-1.7,2.9c-0.4,0.7-1,0.8-1.8,0.8c-1-0.1-2.8,0-4.6,0.4
		c-1.5,0.3-2.4,0.7-2.6,1.5c0,0.1-0.1,0.3,0,0.4c0.1,0.7,1.3,0.7,3.4,0.7c3,0,4.8,0.5,5.3,2.8c0.1,0.7,0.2,1.5-0.1,2.7
		c-1.2,5.4-5,6.8-9.5,7.8c-3.9,0.8-6.9,0.6-8.6,0c-0.4-0.1-0.6-0.6-0.3-1.1l2-3.3c0.3-0.4,0.7-0.6,1.2-0.5c1.2,0.2,3,0.3,5.4-0.2
		c1.5-0.3,2.5-0.7,2.7-1.6c0-0.2,0-0.3,0-0.4c-0.1-0.7-1.4-0.6-3.8-0.6c-2.8,0.1-4.4-0.8-4.8-2.8c-0.2-0.7-0.2-1.6,0.1-2.8
		c1.1-4.7,4.1-6.5,9.4-7.7C124.8,169.7,127.8,169.9,128.9,170.3"/>
	<path fill="#E11521" d="M152.3,169.6c0.3,1.3,0.2,3.1-0.3,5.3c-1.5,6.8-5.4,10.4-12,11.8c-4.7,1-8.1-0.4-8.9-3.8
		c-0.3-1.3-0.2-3.1,0.3-5.3c1.6-7,5.3-10.4,12-11.8C148.1,164.8,151.6,166.1,152.3,169.6 M145.1,175.7c0.3-1.5,0.5-2.6,0.3-3.3
		c-0.2-1.1-1.2-1.5-2.6-1.1c-2.4,0.5-3.5,1.8-4.3,5.5c-0.4,1.5-0.5,2.6-0.3,3.3c0.2,1.1,1.2,1.4,2.6,1.1
		C143.2,180.7,144.2,179.5,145.1,175.7"/>
	<path fill="#E11521" d="M167.8,161c5.2-1.1,7.4,0,8,2.7c0.2,0.9,0.1,2-0.2,3.4c-0.8,3.3-2.4,5.4-4.9,6.9l2.1,4.3
		c0.3,0.6,0.2,1.1-0.7,1.2l-4.7,1c-0.8,0.2-1.1,0-1.3-0.5l-1.8-3.9l-2.4,0.5l-1,4.3c-0.2,0.8-0.6,1.1-1.4,1.3l-4.5,1
		c-0.7,0.2-1.1-0.3-1-1l4.2-18.2c0.2-0.8,0.6-1.1,1.4-1.3L167.8,161z M163.2,171.3l2.8-0.6c1.7-0.4,2.6-0.9,2.9-2.4
		c0.1-0.5,0.1-0.8,0.1-1.1c-0.2-0.8-1-0.9-2.3-0.7l-2.5,0.5L163.2,171.3z"/>
	<path fill="#E11521" d="M187.2,156.9c0.7-0.2,1.1,0.3,1,1L184,176c-0.2,0.8-0.6,1.1-1.4,1.3l-4.5,1c-0.7,0.2-1.1-0.3-1-1l4.2-18.2
		c0.2-0.8,0.6-1.1,1.4-1.3L187.2,156.9z"/>
	<path fill="#E11521" d="M208.2,152.4c0.7-0.1,1.1,0.2,0.9,0.9l-0.8,3.3c-0.1,0.6-0.5,0.8-1.1,1l-8.4,1.8l-0.6,2.4l7.5-1.6
		c0.7-0.1,1.1,0.2,0.9,0.9l-0.7,3c-0.1,0.6-0.5,0.8-1.1,1l-7.7,1.6l-0.6,2.6l8.3-1.8c0.7-0.1,1.1,0.2,0.9,0.9l-0.8,3.3
		c-0.1,0.6-0.5,0.8-1.1,1l-14.2,3c-0.7,0.2-1.1-0.3-1-1l4.2-18.2c0.2-0.8,0.6-1.1,1.4-1.3L208.2,152.4z"/>
	<path fill="#E11521" d="M229,149c0.6,0.2,0.8,0.6,0.5,1.2l-1.7,2.9c-0.4,0.7-1,0.9-1.8,0.8c-1-0.1-2.8,0-4.6,0.4
		c-1.5,0.3-2.4,0.7-2.6,1.5c0,0.1-0.1,0.3,0,0.4c0.1,0.7,1.3,0.7,3.4,0.7c3,0,4.8,0.5,5.3,2.8c0.1,0.7,0.2,1.5-0.1,2.7
		c-1.2,5.4-5,6.8-9.5,7.8c-3.9,0.8-6.9,0.6-8.6,0c-0.4-0.1-0.6-0.6-0.3-1.1l2-3.3c0.3-0.4,0.7-0.6,1.2-0.5c1.2,0.2,3,0.3,5.4-0.2
		c1.5-0.3,2.5-0.7,2.7-1.6c0-0.2,0-0.3,0-0.4c-0.1-0.7-1.4-0.6-3.8-0.6c-2.8,0.1-4.4-0.8-4.8-2.8c-0.2-0.7-0.2-1.6,0.1-2.8
		c1.1-4.7,4.1-6.5,9.4-7.7C224.9,148.5,227.9,148.6,229,149"/>
	<path fill="#E11521" d="M182.6,140.2c0.4,0.4,1,0.9,0.2,1.6c-1.2,0.9-3.8,3.4-5.3,4.8l1.8,2c0.5,0.5,0.2,1.1-0.7,1.3l-3.9,0.8
		c-0.8,0.2-1.2,0.2-1.7-0.4l-0.3-0.3c-1.9,1.5-3.9,2.3-5.8,2.7c-4.6,1-8.2,0.6-8.9-3c-0.8-4,2.2-7,6.9-9l-0.1-0.3
		c-0.9-4.3,2-7.8,8-9.1c3.8-0.8,5.6,0.8,5.7,2.8c0.5,6.7-9.5,8.3-9.5,8.3l-0.5-2.7c5.7-1.7,5.5-4,4.2-4.2c-1.8-0.2-2.6,1.4-2.2,2.9
		c0.1,0.5,0.5,1,1,1.6l3.1,3.4c0.5-0.6,3.8-3.4,5.2-4.3c0.5-0.3,0.8-0.4,1.4,0C181.8,139.6,182,139.8,182.6,140.2 M170,147.1
		l-3.1-3.4c-1.2,0.7-2.1,1.7-1.8,3.1c0.2,0.8,1.2,1.3,3.3,0.8C168.9,147.5,169.5,147.3,170,147.1"/>
	<polygon fill="#2B2523" points="271.5,97.8 287.6,29 269.6,32.8 253.5,101.6 	"/>
	<polygon fill="#2B2523" points="289.4,21.4 292.2,9.3 274.2,13.1 271.4,25.2 	"/>
	<polygon fill="#2B2523" points="289.2,43.3 308.1,39.2 280.6,80.7 276.9,96.7 319.5,87.7 323.1,72.1 302.5,76.5 330.3,34.4 
		333.9,19.1 292.8,27.9 	"/>
	<path fill="#2B2523" d="M406,3.8l-16.7,3.6l-16.1,68.8l18-3.8l9.6-41.1c1.7-5.7,6.1-9.8,9.8-10.6c1.8-0.4,2.1-0.5,3.9-0.8L419.3,0
		c-7.4,2.4-11.3,3.2-15,11L406,3.8z"/>
	<path fill="#2B2523" d="M361.3,12.3c-13.9,3-24,10.4-28.1,28.1l-5.4,22.9c-3.6,17.8,2.3,24.4,17.3,21.1
		c17.9-3.9,23.9-10.1,29.2-31.1l-17.7,3.8c-2.1,7.7-2.6,12.2-8.3,13.4c-3.9,0.8-4.7-2.6-3.8-6.4l2.8-12.1l28.1-6l3.2-14.6
		C381.3,19.2,374.7,9.4,361.3,12.3 M362.4,31.2l-1.4,6l-10.8,2.3l1.1-5c0.9-3.9,2.4-9.5,7.5-10.5C363.2,23.3,363.2,28.2,362.4,31.2"
		/>
	<polygon fill="#2B2523" points="11.2,153.1 32.7,61 79.5,51 75.2,69.5 48.9,75.1 45,92 69.9,86.7 65.6,105.1 40.7,110.4 36,130.3 
		62.4,124.7 58.1,143.1 	"/>
	<path fill="#2B2523" d="M200.8,47.5L184.1,51L168,119.8l18-3.8l9.6-41.1c1.7-5.7,6.1-9.8,9.8-10.6c1.8-0.4,2.1-0.5,3.9-0.8
		l4.8-19.9c-6,1.2-11.3,3.2-15.1,11L200.8,47.5z"/>
	<path fill="#2B2523" d="M155.1,56.1c-13.9,3-24,10.4-28.2,28.1l-5.4,22.8c-3.6,17.8,2.3,24.4,17.3,21.1
		c17.9-3.9,23.9-10.1,29.2-31.1l-17.7,3.7c-2.1,7.7-2.6,12.2-8.3,13.4c-3.9,0.8-4.7-2.6-3.8-6.4l2.8-12l28.1-6l3.2-14.6
		C175.1,63,168.5,53.3,155.1,56.1 M156.2,75.1l-1.4,6L144,83.4l1.2-5c0.9-3.9,2.4-9.5,7.5-10.5C157,67.1,157,72,156.2,75.1"/>
	<path fill="#2B2523" d="M246.8,37.4l-1.6,7.2c-1.4-6.2-5.7-6.8-10.4-5.8c-7.4,1.5-16.4,6-21.7,24.4l-4.5,19
		c-4.4,20.2,0.7,26.7,9,25c5.6-0.6,10.8-4.4,15.1-9.5l-3.3,13.3c-1.1,4.4-3,7.7-7.6,8.6c-4,0.8-4.8-0.8-4.1-7l-16.6,3.5
		c-3,12.7,4.9,19.7,18.5,16.8c19.7-4.3,23.8-12.8,27.6-28.9l16.4-70.1L246.8,37.4z M239.2,62.4L235.4,79c-1.8,7.1-3.8,11.1-7.1,11.9
		c-5.4,1.3-3.9-4.1-2.6-10.2l3.6-16.2c1.8-7.2,3.9-11.2,7.4-12C240.4,51.8,240.9,54.8,239.2,62.4"/>
	<path fill="#2B2523" d="M97,69.5l-16.7,3.6l-16.1,68.8l18-3.8l11.3-48.3c0.8-3.6,3.6-8.1,6.8-8.9c4.5-1,4,3.5,3.5,6.6l-11,48.3
		l17.8-3.8l11.6-51.1c2.2-9.3-2.2-17.5-12.4-15.4c-5.7,1.2-11.3,5.1-14.2,10.7L97,69.5z"/>
	<path fill="#2B2523" d="M406.1,58.3c3.5,0,6.4,2.8,6.4,6.4c0,3.7-2.9,6.4-6.4,6.4c-3.5,0-6.4-2.8-6.4-6.4
		C399.7,61,402.6,58.3,406.1,58.3 M406.1,70.1c3,0,5.2-2.4,5.2-5.5c0-3.1-2.3-5.4-5.2-5.4c-3,0-5.3,2.4-5.3,5.4
		C400.8,67.7,403.1,70.1,406.1,70.1 M404,61.3h2.5c1.6,0,2.3,0.6,2.3,1.9c0,1.2-0.8,1.7-1.7,1.8l1.9,2.9h-1.1l-1.8-2.8H405v2.8h-1
		V61.3z M405,64.3h1.1c0.9,0,1.7,0,1.7-1.1c0-0.9-0.8-1-1.4-1H405V64.3z"/>
</g>
</svg>
